<svg width="26" height="25" viewBox="0 0 26 25" fill="none" xmlns="http://www.w3.org/2000/svg">
<path d="M20.5683 15.0295C20.2425 15.3451 20.0929 15.8016 20.1671 16.2493L21.2851 22.4366C21.3794 22.961 21.1581 23.4917 20.7192 23.7948C20.2891 24.1092 19.7169 24.1469 19.2478 23.8954L13.678 20.9904C13.4843 20.8872 13.2693 20.8319 13.0492 20.8256H12.7084C12.5902 20.8432 12.4745 20.881 12.3689 20.9388L6.79781 23.8576C6.5224 23.996 6.21052 24.045 5.90493 23.996C5.16045 23.8551 4.6637 23.1459 4.78569 22.3976L5.90493 16.2103C5.97913 15.7589 5.82948 15.2998 5.50376 14.9792L0.962658 10.5776C0.582871 10.2092 0.450825 9.65584 0.624371 9.15658C0.792886 8.65858 1.22298 8.29514 1.74236 8.2134L7.99251 7.30669C8.46787 7.25764 8.88538 6.9684 9.09917 6.54083L11.8533 0.894311C11.9187 0.768553 12.0029 0.652856 12.1048 0.554765L12.218 0.466735C12.2771 0.401341 12.345 0.347265 12.4204 0.30325L12.5575 0.252947L12.7713 0.164917H13.3007C13.7736 0.213962 14.1898 0.496917 14.4074 0.919463L17.198 6.54083C17.3992 6.95205 17.7903 7.23752 18.2417 7.30669L24.4919 8.2134C25.0201 8.28886 25.4615 8.65355 25.6363 9.15658C25.801 9.66087 25.6589 10.2142 25.2716 10.5776L20.5683 15.0295Z" fill="#828282"/>
</svg>
