<svg width="24" height="26" viewBox="0 0 24 26" fill="none" xmlns="http://www.w3.org/2000/svg">
<path d="M17.3957 0.445068C21.2803 0.445068 23.4433 2.68355 23.4433 6.51916V19.5099C23.4433 23.4084 21.2803 25.5966 17.3957 25.5966H6.85592C3.03289 25.5966 0.806976 23.4084 0.806976 19.5099V6.51916C0.806976 2.68355 3.03289 0.445068 6.85592 0.445068H17.3957ZM7.19546 17.7242C6.81819 17.6864 6.45349 17.8625 6.25228 18.1895C6.05107 18.5039 6.05107 18.9189 6.25228 19.2458C6.45349 19.5602 6.81819 19.7489 7.19546 19.6986H17.0549C17.5566 19.6483 17.9352 19.2194 17.9352 18.7176C17.9352 18.202 17.5566 17.7745 17.0549 17.7242H7.19546ZM17.0549 11.9884H7.19546C6.65345 11.9884 6.21455 12.4298 6.21455 12.9705C6.21455 13.5113 6.65345 13.9514 7.19546 13.9514H17.0549C17.5956 13.9514 18.0358 13.5113 18.0358 12.9705C18.0358 12.4298 17.5956 11.9884 17.0549 11.9884ZM10.9544 6.2928H7.19546V6.30537C6.65345 6.30537 6.21455 6.74552 6.21455 7.28628C6.21455 7.82704 6.65345 8.26719 7.19546 8.26719H10.9544C11.4964 8.26719 11.9365 7.82704 11.9365 7.27245C11.9365 6.73295 11.4964 6.2928 10.9544 6.2928Z" fill="#828282"/>
</svg>
