<svg width="24" height="26" viewBox="0 0 24 26" fill="none" xmlns="http://www.w3.org/2000/svg">
<path d="M17.3995 0.463867C21.2844 0.463867 23.4475 2.70246 23.4475 6.53826V19.5297C23.4475 23.4284 21.2844 25.6166 17.3995 25.6166H6.85927C3.03605 25.6166 0.810028 23.4284 0.810028 19.5297V6.53826C0.810028 2.70246 3.03605 0.463867 6.85927 0.463867H17.3995ZM7.19883 17.7438C6.82154 17.7061 6.45683 17.8822 6.2556 18.2092C6.05438 18.5236 6.05438 18.9386 6.2556 19.2656C6.45683 19.58 6.82154 19.7686 7.19883 19.7183H17.0587C17.5605 19.668 17.9391 19.2392 17.9391 18.7374C17.9391 18.2217 17.5605 17.7941 17.0587 17.7438H7.19883ZM17.0587 12.0077H7.19883C6.65679 12.0077 6.21788 12.4492 6.21788 12.99C6.21788 13.5307 6.65679 13.9709 7.19883 13.9709H17.0587C17.5995 13.9709 18.0397 13.5307 18.0397 12.99C18.0397 12.4492 17.5995 12.0077 17.0587 12.0077ZM10.9579 6.31189H7.19883V6.32446C6.65679 6.32446 6.21788 6.76464 6.21788 7.30542C6.21788 7.84621 6.65679 8.28638 7.19883 8.28638H10.9579C11.5 8.28638 11.9401 7.84621 11.9401 7.29159C11.9401 6.75206 11.5 6.31189 10.9579 6.31189Z" fill="#828282"/>
</svg>
