<svg width="27" height="26" viewBox="0 0 27 26" fill="none" xmlns="http://www.w3.org/2000/svg">
<path d="M12.0439 0.787842C15.1659 0.787842 17.7121 3.29042 17.7121 6.37148V12.3953H10.035C9.48486 12.3953 9.04982 12.8228 9.04982 13.3636C9.04982 13.8918 9.48486 14.3319 10.035 14.3319H17.7121V20.3431C17.7121 23.4242 15.1659 25.9394 12.0183 25.9394H5.78707C2.65227 25.9394 0.106049 23.4368 0.106049 20.3557V6.38405C0.106049 3.29042 2.66507 0.787842 5.79987 0.787842H12.0439ZM20.9066 9.02521C21.2839 8.63537 21.9001 8.63537 22.2774 9.01264L25.9495 12.6722C26.1381 12.8608 26.2387 13.0998 26.2387 13.3639C26.2387 13.6154 26.1381 13.8669 25.9495 14.0429L22.2774 17.7025C22.0887 17.8911 21.8372 17.9917 21.5983 17.9917C21.3468 17.9917 21.0952 17.8911 20.9066 17.7025C20.5293 17.3252 20.5293 16.709 20.9066 16.3317L22.9187 14.3322H17.7124V12.3955H22.9187L20.9066 10.396C20.5293 10.0187 20.5293 9.40249 20.9066 9.02521Z" fill="#E5613E"/>
</svg>
