<svg width="81" height="37" viewBox="0 0 81 37" fill="none" xmlns="http://www.w3.org/2000/svg">
<path d="M2.03573 31.2273V3.0576H20.4265V7.20257H7.18677V14.9291H19.2193V18.9534H7.18677V27.0823H20.4265V31.2273H2.03573Z" fill="#0790FF"/>
<path d="M28.9906 30.0443C27.9946 30.0443 27.1193 29.8859 26.3648 29.569C25.6102 29.237 25.0066 28.7843 24.5539 28.2108C24.1011 27.6373 23.8295 26.9733 23.739 26.2188H26.6591C26.7496 26.6564 26.9911 27.0337 27.3834 27.3506C27.7909 27.6524 28.3115 27.8033 28.9453 27.8033C29.5791 27.8033 30.0394 27.6751 30.3261 27.4185C30.628 27.162 30.7789 26.8677 30.7789 26.5357C30.7789 26.0528 30.5676 25.7283 30.1451 25.5623C29.7225 25.3813 29.134 25.2077 28.3794 25.0417C27.8965 24.9361 27.4061 24.8078 26.9081 24.6569C26.4101 24.506 25.9498 24.3173 25.5272 24.091C25.1198 23.8495 24.7878 23.5477 24.5312 23.1855C24.2747 22.8083 24.1464 22.348 24.1464 21.8047C24.1464 20.8087 24.5388 19.9712 25.3235 19.2921C26.1233 18.613 27.2401 18.2734 28.6737 18.2734C30.0017 18.2734 31.0581 18.5828 31.8428 19.2015C32.6426 19.8202 33.118 20.6729 33.2689 21.7594H30.5299C30.3639 20.9294 29.7376 20.5144 28.6511 20.5144C28.1078 20.5144 27.6852 20.6201 27.3834 20.8313C27.0967 21.0426 26.9533 21.3067 26.9533 21.6236C26.9533 21.9556 27.1721 22.2197 27.6098 22.4159C28.0474 22.6121 28.6284 22.7932 29.3528 22.9592C30.1375 23.1403 30.8543 23.344 31.5032 23.5703C32.1672 23.7816 32.6954 24.1061 33.0878 24.5437C33.4801 24.9663 33.6763 25.5774 33.6763 26.3773C33.6914 27.0714 33.5103 27.6977 33.1331 28.2561C32.7558 28.8144 32.2125 29.2521 31.5032 29.569C30.794 29.8859 29.9564 30.0443 28.9906 30.0443ZM35.7904 29.7727V13.4745H38.6878V20.2654C39.0651 19.6467 39.5706 19.1638 40.2044 18.8167C40.8534 18.4545 41.5928 18.2734 42.4228 18.2734C43.8112 18.2734 44.8826 18.7111 45.6372 19.5863C46.4068 20.4616 46.7916 21.7443 46.7916 23.4345V29.7727H43.9168V23.7062C43.9168 22.7403 43.7206 22.0009 43.3283 21.4878C42.951 20.9747 42.3474 20.7182 41.5174 20.7182C40.7024 20.7182 40.0234 21.0049 39.4801 21.5783C38.9519 22.1518 38.6878 22.9516 38.6878 23.9778V29.7727H35.7904ZM54.497 30.0443C53.4105 30.0443 52.4296 29.7953 51.5543 29.2973C50.6941 28.7993 50.0075 28.1127 49.4944 27.2374C48.9964 26.3471 48.7474 25.3209 48.7474 24.1589C48.7474 22.9969 49.0039 21.9783 49.517 21.103C50.0301 20.2126 50.7167 19.5184 51.5769 19.0204C52.4522 18.5224 53.4331 18.2734 54.5196 18.2734C55.5911 18.2734 56.5569 18.5224 57.4171 19.0204C58.2924 19.5184 58.979 20.2126 59.477 21.103C59.9901 21.9783 60.2466 22.9969 60.2466 24.1589C60.2466 25.3209 59.9901 26.3471 59.477 27.2374C58.979 28.1127 58.2924 28.7993 57.4171 29.2973C56.5418 29.7953 55.5685 30.0443 54.497 30.0443ZM54.497 27.5317C55.2516 27.5317 55.908 27.2525 56.4664 26.6942C57.0247 26.1207 57.3039 25.2756 57.3039 24.1589C57.3039 23.0422 57.0247 22.2046 56.4664 21.6462C55.908 21.0728 55.2591 20.7861 54.5196 20.7861C53.75 20.7861 53.086 21.0728 52.5276 21.6462C51.9844 22.2046 51.7127 23.0422 51.7127 24.1589C51.7127 25.2756 51.9844 26.1207 52.5276 26.6942C53.086 27.2525 53.7425 27.5317 54.497 27.5317ZM62.3845 34.7527V18.5451H64.9651L65.282 20.1523C65.6442 19.6542 66.1195 19.2166 66.7081 18.8393C67.3117 18.4621 68.0889 18.2734 69.0396 18.2734C70.096 18.2734 71.0392 18.53 71.8692 19.0431C72.6992 19.5562 73.3556 20.2579 73.8385 21.1483C74.3215 22.0386 74.5629 23.0497 74.5629 24.1815C74.5629 25.3133 74.3215 26.3244 73.8385 27.2148C73.3556 28.0901 72.6992 28.7843 71.8692 29.2973C71.0392 29.7953 70.096 30.0443 69.0396 30.0443C68.1945 30.0443 67.4551 29.8859 66.8213 29.569C66.1875 29.2521 65.6744 28.8069 65.282 28.2334V34.7527H62.3845ZM68.4285 27.5091C69.349 27.5091 70.1111 27.1997 70.7147 26.581C71.3184 25.9623 71.6202 25.1624 71.6202 24.1815C71.6202 23.2006 71.3184 22.3933 70.7147 21.7594C70.1111 21.1256 69.349 20.8087 68.4285 20.8087C67.4928 20.8087 66.7232 21.1256 66.1195 21.7594C65.531 22.3782 65.2367 23.178 65.2367 24.1589C65.2367 25.1398 65.531 25.9472 66.1195 26.581C66.7232 27.1997 67.4928 27.5091 68.4285 27.5091ZM77.9435 29.9312C77.4153 29.9312 76.9777 29.7652 76.6306 29.4332C76.2986 29.1012 76.1326 28.7013 76.1326 28.2334C76.1326 27.7505 76.2986 27.3431 76.6306 27.0111C76.9777 26.6791 77.4153 26.5131 77.9435 26.5131C78.4717 26.5131 78.9018 26.6791 79.2338 27.0111C79.5809 27.3431 79.7544 27.7505 79.7544 28.2334C79.7544 28.7013 79.5809 29.1012 79.2338 29.4332C78.9018 29.7652 78.4717 29.9312 77.9435 29.9312Z" fill="#0D0D0D"/>
</svg>
