<svg width="27" height="26" viewBox="0 0 27 26" fill="none" xmlns="http://www.w3.org/2000/svg">
<path d="M12.0474 0.844482C15.1696 0.844482 17.716 3.34718 17.716 6.4284V12.4525H10.0385C9.48829 12.4525 9.05323 12.8801 9.05323 13.4209C9.05323 13.9491 9.48829 14.3893 10.0385 14.3893H17.716V20.4008C17.716 23.482 15.1696 25.9973 12.0218 25.9973H5.79032C2.65536 25.9973 0.109009 23.4946 0.109009 20.4133V6.44097C0.109009 3.34718 2.66816 0.844482 5.80312 0.844482H12.0474ZM20.9106 9.08227C21.2879 8.6924 21.9041 8.6924 22.2814 9.06969L25.9537 12.7294C26.1424 12.9181 26.243 13.157 26.243 13.4211C26.243 13.6727 26.1424 13.9242 25.9537 14.1002L22.2814 17.76C22.0928 17.9486 21.8413 18.0492 21.6023 18.0492C21.3508 18.0492 21.0993 17.9486 20.9106 17.76C20.5333 17.3827 20.5333 16.7664 20.9106 16.3891L22.9228 14.3895H17.7162V12.4527H22.9228L20.9106 10.4531C20.5333 10.0758 20.5333 9.45956 20.9106 9.08227Z" fill="#E87454"/>
</svg>
