<svg width="81" height="37" viewBox="0 0 81 37" fill="none" xmlns="http://www.w3.org/2000/svg">
<path d="M2.03784 31.2314V3.06033H20.4296V7.20551H7.18913V14.9324H19.2222V18.9569H7.18913V27.0863H20.4296V31.2314H2.03784Z" fill="#219BFF"/>
<path d="M28.9941 30.0487C27.998 30.0487 27.1227 29.8903 26.3681 29.5734C25.6135 29.2413 25.0099 28.7886 24.5571 28.2151C24.1044 27.6416 23.8327 26.9776 23.7422 26.223H26.6624C26.7529 26.6607 26.9944 27.038 27.3868 27.3549C27.7943 27.6567 28.3149 27.8076 28.9488 27.8076C29.5826 27.8076 30.0429 27.6794 30.3297 27.4228C30.6315 27.1662 30.7824 26.872 30.7824 26.5399C30.7824 26.057 30.5711 25.7325 30.1486 25.5665C29.726 25.3854 29.1374 25.2119 28.3828 25.0459C27.8999 24.9402 27.4094 24.8119 26.9114 24.661C26.4134 24.5101 25.9531 24.3215 25.5305 24.0951C25.123 23.8536 24.791 23.5518 24.5345 23.1896C24.2779 22.8123 24.1496 22.352 24.1496 21.8087C24.1496 20.8126 24.542 19.9751 25.3268 19.2959C26.1266 18.6168 27.2434 18.2772 28.6771 18.2772C30.0052 18.2772 31.0616 18.5866 31.8464 19.2054C32.6462 19.8241 33.1216 20.6768 33.2725 21.7634H30.5334C30.3674 20.9334 29.7411 20.5184 28.6545 20.5184C28.1112 20.5184 27.6886 20.624 27.3868 20.8353C27.1 21.0466 26.9567 21.3107 26.9567 21.6276C26.9567 21.9596 27.1755 22.2237 27.6132 22.4199C28.0508 22.6161 28.6319 22.7972 29.3563 22.9632C30.141 23.1443 30.8579 23.348 31.5068 23.5744C32.1708 23.7857 32.6991 24.1102 33.0914 24.5478C33.4838 24.9704 33.68 25.5816 33.68 26.3815C33.6951 27.0757 33.514 27.702 33.1367 28.2604C32.7594 28.8188 32.2161 29.2564 31.5068 29.5734C30.7975 29.8903 29.9599 30.0487 28.9941 30.0487ZM35.7941 29.7771V13.4781H38.6917V20.2693C39.069 19.6506 39.5746 19.1677 40.2085 18.8205C40.8574 18.4583 41.5969 18.2772 42.4269 18.2772C43.8154 18.2772 44.8869 18.7149 45.6415 19.5902C46.4111 20.4655 46.796 21.7483 46.796 23.4386V29.7771H43.921V23.7102C43.921 22.7444 43.7248 22.0049 43.3324 21.4918C42.9551 20.9787 42.3515 20.7221 41.5214 20.7221C40.7065 20.7221 40.0274 21.0088 39.4841 21.5823C38.9558 22.1558 38.6917 22.9557 38.6917 23.9819V29.7771H35.7941ZM54.5017 30.0487C53.4151 30.0487 52.4342 29.7997 51.5589 29.3017C50.6986 28.8037 50.012 28.117 49.4989 27.2417C49.0008 26.3513 48.7518 25.3251 48.7518 24.163C48.7518 23.0009 49.0084 21.9823 49.5215 21.1069C50.0346 20.2165 50.7213 19.5223 51.5815 19.0243C52.4568 18.5263 53.4378 18.2772 54.5244 18.2772C55.5959 18.2772 56.5618 18.5263 57.422 19.0243C58.2973 19.5223 58.984 20.2165 59.482 21.1069C59.9951 21.9823 60.2517 23.0009 60.2517 24.163C60.2517 25.3251 59.9951 26.3513 59.482 27.2417C58.984 28.117 58.2973 28.8037 57.422 29.3017C56.5467 29.7997 55.5732 30.0487 54.5017 30.0487ZM54.5017 27.536C55.2563 27.536 55.9128 27.2568 56.4712 26.6984C57.0296 26.1249 57.3088 25.2798 57.3088 24.163C57.3088 23.0462 57.0296 22.2086 56.4712 21.6502C55.9128 21.0768 55.2639 20.79 54.5244 20.79C53.7547 20.79 53.0907 21.0768 52.5323 21.6502C51.989 22.2086 51.7173 23.0462 51.7173 24.163C51.7173 25.2798 51.989 26.1249 52.5323 26.6984C53.0907 27.2568 53.7472 27.536 54.5017 27.536ZM62.3897 34.7573V18.5489H64.9703L65.2873 20.1562C65.6495 19.6581 66.1249 19.2205 66.7134 18.8432C67.3171 18.4659 68.0943 18.2772 69.0451 18.2772C70.1015 18.2772 71.0447 18.5338 71.8748 19.0469C72.7048 19.56 73.3613 20.2618 73.8442 21.1522C74.3272 22.0426 74.5686 23.0538 74.5686 24.1856C74.5686 25.3175 74.3272 26.3287 73.8442 27.2191C73.3613 28.0944 72.7048 28.7886 71.8748 29.3017C71.0447 29.7997 70.1015 30.0487 69.0451 30.0487C68.2 30.0487 67.4605 29.8903 66.8266 29.5734C66.1928 29.2564 65.6797 28.8112 65.2873 28.2377V34.7573H62.3897ZM68.4339 27.5133C69.3545 27.5133 70.1166 27.204 70.7203 26.5852C71.3239 25.9665 71.6258 25.1666 71.6258 24.1856C71.6258 23.2047 71.3239 22.3973 70.7203 21.7634C70.1166 21.1296 69.3545 20.8126 68.4339 20.8126C67.4982 20.8126 66.7285 21.1296 66.1249 21.7634C65.5363 22.3822 65.242 23.182 65.242 24.163C65.242 25.144 65.5363 25.9514 66.1249 26.5852C66.7285 27.204 67.4982 27.5133 68.4339 27.5133ZM77.9494 29.9356C77.4212 29.9356 76.9835 29.7696 76.6364 29.4375C76.3044 29.1055 76.1384 28.7056 76.1384 28.2377C76.1384 27.7548 76.3044 27.3473 76.6364 27.0153C76.9835 26.6833 77.4212 26.5173 77.9494 26.5173C78.4776 26.5173 78.9077 26.6833 79.2398 27.0153C79.5869 27.3473 79.7604 27.7548 79.7604 28.2377C79.7604 28.7056 79.5869 29.1055 79.2398 29.4375C78.9077 29.7696 78.4776 29.9356 77.9494 29.9356Z" fill="white"/>
</svg>
