<svg width="24" height="26" viewBox="0 0 24 26" fill="none" xmlns="http://www.w3.org/2000/svg">
<path d="M12.198 0.63501C15.5683 0.63501 18.339 3.28335 18.4797 6.63908H18.4468C18.4508 6.73663 18.432 6.83376 18.3921 6.92289H18.5884C20.1189 6.92289 21.7215 7.98366 22.3641 10.5445L22.434 10.8466L23.4009 18.6369C24.0968 23.6056 21.3783 25.6951 17.6701 25.7836L17.4214 25.7865H6.99617C3.22753 25.7865 0.323493 24.4132 0.96201 18.9749L1.00555 18.6369L1.98361 10.8466C2.46589 8.08889 4.08498 7.00117 5.64502 6.92699L5.81805 6.92289H5.91636C5.89978 6.82901 5.89978 6.73296 5.91636 6.63908C6.057 3.28335 8.82779 0.63501 12.198 0.63501ZM8.54106 11.1097C7.92724 11.1097 7.42963 11.6219 7.42963 12.2537C7.42963 12.8854 7.92724 13.3976 8.54106 13.3976C9.15489 13.3976 9.65249 12.8854 9.65249 12.2537L9.64384 12.1102C9.57525 11.5461 9.10767 11.1097 8.54106 11.1097ZM15.8209 11.1097C15.2071 11.1097 14.7095 11.6219 14.7095 12.2537C14.7095 12.8854 15.2071 13.3976 15.8209 13.3976C16.4348 13.3976 16.9324 12.8854 16.9324 12.2537C16.9324 11.6219 16.4348 11.1097 15.8209 11.1097ZM12.1487 2.27286C9.72902 2.27286 7.76746 4.22768 7.76746 6.63908C7.78403 6.73296 7.78403 6.82901 7.76746 6.92289H16.5848C16.5498 6.83227 16.5312 6.73617 16.53 6.63908C16.53 4.22768 14.5685 2.27286 12.1487 2.27286Z" fill="#828282"/>
</svg>
