<svg width="32" height="37" viewBox="0 0 32 37" fill="none" xmlns="http://www.w3.org/2000/svg">
<path fill-rule="evenodd" clip-rule="evenodd" d="M13.0084 32.0768C13.877 33.0443 14.9921 33.5758 16.149 33.5758H16.1507C17.3127 33.5758 18.4328 33.0443 19.303 32.0751C19.7692 31.5603 20.564 31.5184 21.0787 31.9829C21.5952 32.4474 21.6371 33.2438 21.1726 33.7586C19.8178 35.2626 18.0354 36.091 16.1507 36.091H16.1473C14.2677 36.0893 12.4886 35.261 11.1388 33.7569C10.6744 33.2421 10.7163 32.4457 11.2327 31.9829C11.7492 31.5167 12.544 31.5587 13.0084 32.0768ZM16.2325 0.0404663C23.6858 0.0404663 28.6926 5.84544 28.6926 11.2664C28.6926 14.0549 29.4019 15.237 30.1547 16.4912C30.8992 17.7287 31.7426 19.1338 31.7426 21.7898C31.1574 28.5757 24.0731 29.129 16.2325 29.129C8.39196 29.129 1.30595 28.5757 0.727439 21.8971C0.722431 19.1338 1.56585 17.7287 2.31033 16.4912L2.57315 16.0488C3.22027 14.9366 3.77247 13.7268 3.77247 11.2664C3.77247 5.84544 8.7793 0.0404663 16.2325 0.0404663ZM16.2325 2.55562C10.3722 2.55562 6.28762 7.14661 6.28762 11.2664C6.28762 14.7524 5.32013 16.3638 4.46498 17.7857C3.77918 18.9276 3.23758 19.8297 3.23758 21.7898C3.5176 24.9522 5.60518 26.6139 16.2325 26.6139C26.8012 26.6139 28.9542 24.8784 29.2325 21.6808C29.2275 19.8297 28.6859 18.9276 28.0001 17.7857C27.1449 16.3638 26.1774 14.7524 26.1774 11.2664C26.1774 7.14661 22.0928 2.55562 16.2325 2.55562Z" fill="#0D0D0D"/>
</svg>
