<svg width="32" height="37" viewBox="0 0 32 37" fill="none" xmlns="http://www.w3.org/2000/svg">
<path fill-rule="evenodd" clip-rule="evenodd" d="M13.0698 32.0814C13.9385 33.0489 15.0536 33.5805 16.2106 33.5805H16.2123C17.3743 33.5805 18.4945 33.0489 19.3648 32.0797C19.8309 31.5649 20.6257 31.523 21.1405 31.9875C21.657 32.452 21.6989 33.2485 21.2344 33.7633C19.8795 35.2674 18.0971 36.0958 16.2123 36.0958H16.2089C14.3292 36.0941 12.55 35.2657 11.2002 33.7616C10.7357 33.2468 10.7776 32.4503 11.2941 31.9875C11.8105 31.5213 12.6054 31.5632 13.0698 32.0814ZM16.2941 0.043457C23.7477 0.043457 28.7548 5.84872 28.7548 11.27C28.7548 14.0586 29.4641 15.2408 30.217 16.4951C30.9615 17.7326 31.805 19.1378 31.805 21.7939C31.2198 28.5801 24.1351 29.1335 16.2941 29.1335C8.45314 29.1335 1.36677 28.5801 0.78823 21.9012C0.783222 19.1378 1.62668 17.7326 2.3712 16.4951L2.63404 16.0526C3.28119 14.9404 3.83342 13.7305 3.83342 11.27C3.83342 5.84872 8.84049 0.043457 16.2941 0.043457ZM16.2941 2.55873C10.4335 2.55873 6.34869 7.14996 6.34869 11.27C6.34869 14.7562 5.38115 16.3676 4.52595 17.7896C3.84012 18.9315 3.2985 19.8337 3.2985 21.7939C3.57853 24.9564 5.66621 26.6182 16.2941 26.6182C26.8633 26.6182 29.0164 24.8827 29.2947 21.6849C29.2897 19.8337 28.7481 18.9315 28.0622 17.7896C27.2071 16.3676 26.2395 14.7562 26.2395 11.27C26.2395 7.14996 22.1547 2.55873 16.2941 2.55873Z" fill="white"/>
</svg>
