<svg width="35" height="36" viewBox="0 0 35 36" fill="none" xmlns="http://www.w3.org/2000/svg">
<path fill-rule="evenodd" clip-rule="evenodd" d="M17.1662 0.720459C26.1709 0.720459 33.4954 8.04495 33.4954 17.0496C33.4954 21.298 31.865 25.1728 29.197 28.0808L34.4468 33.3196C34.9381 33.811 34.9398 34.6058 34.4485 35.0971C34.2037 35.3453 33.88 35.4677 33.5581 35.4677C33.2378 35.4677 32.9158 35.3453 32.6693 35.1005L27.3562 29.8021C24.5612 32.0404 21.0174 33.3805 17.1662 33.3805C8.16149 33.3805 0.835327 26.0543 0.835327 17.0496C0.835327 8.04495 8.16149 0.720459 17.1662 0.720459ZM17.1662 3.23574C9.54825 3.23574 3.3506 9.4317 3.3506 17.0496C3.3506 24.6676 9.54825 30.8652 17.1662 30.8652C24.7824 30.8652 30.9801 24.6676 30.9801 17.0496C30.9801 9.4317 24.7824 3.23574 17.1662 3.23574Z" fill="white"/>
</svg>
