<svg width="35" height="36" viewBox="0 0 35 36" fill="none" xmlns="http://www.w3.org/2000/svg">
<path fill-rule="evenodd" clip-rule="evenodd" d="M17.1075 0.717224C26.1117 0.717224 33.4359 8.04135 33.4359 17.0456C33.4359 21.2938 31.8056 25.1683 29.1377 28.0762L34.3873 33.3148C34.8786 33.8061 34.8802 34.6008 34.3889 35.0921C34.1441 35.3403 33.8205 35.4627 33.4986 35.4627C33.1783 35.4627 32.8564 35.3403 32.6099 35.0955L27.297 29.7974C24.5022 32.0356 20.9585 33.3756 17.1075 33.3756C8.10326 33.3756 0.777466 26.0498 0.777466 17.0456C0.777466 8.04135 8.10326 0.717224 17.1075 0.717224ZM17.1075 3.23238C9.48995 3.23238 3.29262 9.42803 3.29262 17.0456C3.29262 24.6631 9.48995 30.8605 17.1075 30.8605C24.7234 30.8605 30.9207 24.6631 30.9207 17.0456C30.9207 9.42803 24.7234 3.23238 17.1075 3.23238Z" fill="#0D0D0D"/>
</svg>
