<svg width="25" height="26" viewBox="0 0 25 26" fill="none" xmlns="http://www.w3.org/2000/svg">
<path d="M13.5837 0.16687C14.5347 0.16687 15.3958 0.695052 15.8713 1.47475C16.1026 1.85202 16.2569 2.31732 16.2183 2.80778C16.1926 3.18505 16.3083 3.56232 16.5139 3.91445C17.1694 4.98339 18.6216 5.38581 19.7526 4.78217C21.0249 4.05278 22.6314 4.49293 23.364 5.73793L24.225 7.22187C24.9704 8.46687 24.5592 10.064 23.274 10.7808C22.1816 11.4222 21.796 12.8432 22.4515 13.9247C22.6571 14.2643 22.8884 14.5535 23.2483 14.7296C23.6981 14.9685 24.0451 15.3458 24.2893 15.7231C24.7648 16.5028 24.7263 17.4585 24.2636 18.3011L23.364 19.8102C22.8884 20.6151 22.0017 21.1181 21.0892 21.1181C20.6394 21.1181 20.1381 20.9923 19.7269 20.7408C19.3927 20.527 19.0072 20.4516 18.5959 20.4516C17.3236 20.4516 16.2569 21.4954 16.2183 22.7404C16.2183 24.1866 15.0359 25.3184 13.558 25.3184H11.8101C10.3193 25.3184 9.13692 24.1866 9.13692 22.7404C9.11122 21.4954 8.04451 20.4516 6.77218 20.4516C6.34806 20.4516 5.96251 20.527 5.64121 20.7408C5.22995 20.9923 4.71587 21.1181 4.27891 21.1181C3.35357 21.1181 2.46679 20.6151 1.99127 19.8102L1.10449 18.3011C0.628974 17.4837 0.60327 16.5028 1.07879 15.7231C1.28442 15.3458 1.66998 14.9685 2.10694 14.7296C2.46679 14.5535 2.69813 14.2643 2.91661 13.9247C3.5592 12.8432 3.17365 11.4222 2.08124 10.7808C0.8089 10.064 0.39764 8.46687 1.1302 7.22187L1.99127 5.73793C2.73668 4.49293 4.33032 4.05278 5.61551 4.78217C6.73362 5.38581 8.18588 4.98339 8.84133 3.91445C9.04696 3.56232 9.16263 3.18505 9.13692 2.80778C9.11122 2.31732 9.25259 1.85202 9.49678 1.47475C9.9723 0.695052 10.8334 0.192022 11.7716 0.16687H13.5837ZM12.6969 9.19626C10.6792 9.19626 9.04696 10.7808 9.04696 12.7552C9.04696 14.7296 10.6792 16.3016 12.6969 16.3016C14.7146 16.3016 16.3083 14.7296 16.3083 12.7552C16.3083 10.7808 14.7146 9.19626 12.6969 9.19626Z" fill="#828282"/>
</svg>
