<svg width="26" height="26" viewBox="0 0 26 26" fill="none" xmlns="http://www.w3.org/2000/svg">
<path d="M12.707 0.0814209C19.85 0.0814209 25.2576 5.93793 25.2576 12.6383C25.2576 20.4092 18.9194 25.2329 12.6818 25.2329C10.6194 25.2329 8.33059 24.6788 6.49453 23.5956C5.85317 23.2052 5.31241 22.9155 4.62075 23.1422L2.08044 23.8979C1.43908 24.0994 0.860594 23.5956 1.04923 22.9155L1.89181 20.0943C2.03014 19.7039 2.00499 19.2883 1.80378 18.9608C0.722261 16.9708 0.106049 14.792 0.106049 12.6761C0.106049 6.05128 5.40044 0.0814209 12.707 0.0814209ZM18.4541 11.0765C17.5612 11.0765 16.8444 11.7944 16.8444 12.6887C16.8444 13.5703 17.5612 14.3008 18.4541 14.3008C19.347 14.3008 20.0638 13.5703 20.0638 12.6887C20.0638 11.7944 19.347 11.0765 18.4541 11.0765ZM12.6567 11.0765C11.7764 11.064 11.047 11.7944 11.047 12.6761C11.047 13.5703 11.7638 14.2882 12.6567 14.3008C13.5495 14.3008 14.2664 13.5703 14.2664 12.6887C14.2664 11.7944 13.5495 11.0765 12.6567 11.0765ZM6.85923 11.0765C5.96635 11.0765 5.24953 11.7944 5.24953 12.6887C5.24953 13.5703 5.97893 14.3008 6.85923 14.3008C7.75211 14.2882 8.46893 13.5703 8.46893 12.6887C8.46893 11.7944 7.75211 11.0765 6.85923 11.0765Z" fill="#828282"/>
</svg>
